<svg width="20" height="18" viewBox="0 0 20 18" fill="none" xmlns="http://www.w3.org/2000/svg">
<g clip-path="url(#clip0_359_2)">
<path d="M15.065 0H3.964C2.91309 0.00132307 1.9056 0.419383 1.16249 1.16249C0.419382 1.9056 0.00132307 2.91309 0 3.964V10.307C0.00132307 11.3579 0.419382 12.3654 1.16249 13.1085C1.9056 13.8516 2.91309 14.2697 3.964 14.271H8.722V15.857H5.55C5.33968 15.857 5.13798 15.9405 4.98926 16.0893C4.84055 16.238 4.757 16.4397 4.757 16.65C4.757 16.8603 4.84055 17.062 4.98926 17.2107C5.13798 17.3595 5.33968 17.443 5.55 17.443H13.479C13.6893 17.443 13.891 17.3595 14.0397 17.2107C14.1885 17.062 14.272 16.8603 14.272 16.65C14.272 16.4397 14.1885 16.238 14.0397 16.0893C13.891 15.9405 13.6893 15.857 13.479 15.857H10.308V14.272H15.065C16.1159 14.2707 17.1234 13.8526 17.8665 13.1095C18.6096 12.3664 19.0277 11.3589 19.029 10.308V3.964C19.0277 2.91309 18.6096 1.9056 17.8665 1.16249C17.1234 0.419383 16.1159 0.00132307 15.065 0ZM17.444 10.308C17.444 10.9389 17.1934 11.5441 16.7472 11.9902C16.3011 12.4364 15.6959 12.687 15.065 12.687H3.964C3.33305 12.687 2.72794 12.4364 2.28179 11.9902C1.83564 11.5441 1.585 10.9389 1.585 10.308V3.964C1.58527 3.33322 1.83603 2.72837 2.28215 2.28244C2.72827 1.83651 3.33322 1.586 3.964 1.586H15.064C15.695 1.586 16.3001 1.83664 16.7462 2.28279C17.1924 2.72894 17.443 3.33405 17.443 3.965L17.444 10.308ZM15.858 7.136C15.858 7.34632 15.7745 7.54802 15.6257 7.69674C15.477 7.84545 15.2753 7.929 15.065 7.929H12.714L11.366 9.955C11.2934 10.0639 11.1949 10.1531 11.0794 10.2147C10.9639 10.2763 10.8349 10.3084 10.704 10.308H10.655C10.5164 10.2994 10.3824 10.2544 10.2666 10.1777C10.1507 10.101 10.0571 9.99527 9.995 9.871L8.227 6.334L7.4 7.576C7.32755 7.68463 7.2294 7.77368 7.11427 7.83527C6.99913 7.89685 6.87057 7.92904 6.74 7.929H3.964C3.75368 7.929 3.55198 7.84545 3.40326 7.69674C3.25455 7.54802 3.171 7.34632 3.171 7.136C3.171 6.92568 3.25455 6.72398 3.40326 6.57526C3.55198 6.42655 3.75368 6.343 3.964 6.343H6.315L7.663 4.317C7.7393 4.20013 7.84544 4.10578 7.97045 4.04372C8.09546 3.98166 8.23478 3.95413 8.374 3.964C8.51265 3.97265 8.64659 4.01757 8.76242 4.09426C8.87825 4.17096 8.97191 4.27673 9.034 4.401L10.8 7.937L11.628 6.695C11.7007 6.58674 11.7989 6.49808 11.914 6.43685C12.0292 6.37563 12.1576 6.34374 12.288 6.344H15.063C15.1672 6.34374 15.2705 6.36402 15.3669 6.40369C15.4632 6.44336 15.5508 6.50165 15.6247 6.5752C15.6985 6.64876 15.7571 6.73615 15.7972 6.83238C15.8372 6.9286 15.8579 7.03178 15.858 7.136Z" fill="white"/>
</g>
<defs>
<clipPath id="clip0_359_2">
<rect width="19.03" height="17.444" fill="white"/>
</clipPath>
</defs>
</svg>
