<svg width="16" height="20" viewBox="0 0 16 20" fill="none" xmlns="http://www.w3.org/2000/svg">
<g clip-path="url(#clip0_359_10)">
<path d="M11.982 11.184C11.982 11.2891 11.9613 11.3931 11.9211 11.4902C11.8809 11.5872 11.822 11.6754 11.7477 11.7497C11.6734 11.824 11.5852 11.8829 11.4881 11.9231C11.3911 11.9633 11.2871 11.984 11.182 11.984H4.793C4.58083 11.984 4.37734 11.8997 4.22731 11.7497C4.07729 11.5997 3.993 11.3962 3.993 11.184C3.993 10.9718 4.07729 10.7684 4.22731 10.6183C4.37734 10.4683 4.58083 10.384 4.793 10.384H11.184C11.3958 10.3845 11.5988 10.4691 11.7484 10.619C11.898 10.769 11.982 10.9722 11.982 11.184ZM8.782 13.584H4.793C4.58083 13.584 4.37734 13.6683 4.22731 13.8183C4.07729 13.9684 3.993 14.1718 3.993 14.384C3.993 14.5962 4.07729 14.7997 4.22731 14.9497C4.37734 15.0997 4.58083 15.184 4.793 15.184H8.787C8.99917 15.184 9.20266 15.0997 9.35268 14.9497C9.50271 14.7997 9.587 14.5962 9.587 14.384C9.587 14.1718 9.50271 13.9684 9.35268 13.8183C9.20266 13.6683 8.99917 13.584 8.787 13.584H8.782ZM15.971 8.38402V15.184C15.9694 16.2428 15.5481 17.2578 14.7994 18.0064C14.0508 18.7551 13.0358 19.1764 11.977 19.178H3.994C2.93417 19.1764 1.9183 18.7543 1.16945 18.0043C0.420602 17.2544 -1.1923e-06 16.2378 0 15.178V3.99402C0.00158699 2.93523 0.422892 1.92026 1.17157 1.17159C1.92024 0.422909 2.93521 0.00160415 3.994 1.71581e-05H7.6C8.33461 -0.00180813 9.0623 0.142015 9.74099 0.423169C10.4197 0.704324 11.0359 1.11723 11.554 1.63802L14.337 4.42302C14.8583 4.94068 15.2716 5.55663 15.5531 6.23518C15.8346 6.91373 15.9787 7.64139 15.977 8.37602L15.971 8.38402ZM10.426 2.76702C10.1745 2.52348 9.89206 2.31403 9.586 2.14402V5.59202C9.586 5.80419 9.67029 6.00767 9.82031 6.1577C9.97034 6.30773 10.1738 6.39202 10.386 6.39202H13.834C13.6638 6.08613 13.454 5.80403 13.21 5.55302L10.426 2.76702ZM14.379 8.37602C14.379 8.24402 14.353 8.11802 14.341 7.98902H10.385C9.74848 7.98902 9.13803 7.73616 8.68794 7.28607C8.23786 6.83599 7.985 6.22554 7.985 5.58902V1.63502C7.859 1.62302 7.732 1.60002 7.6 1.60002H3.994C3.35748 1.60002 2.74703 1.85287 2.29694 2.30296C1.84686 2.75305 1.594 3.3635 1.594 4.00002V15.178C1.594 15.8145 1.84686 16.425 2.29694 16.8751C2.74703 17.3252 3.35748 17.578 3.994 17.578H11.982C12.6185 17.578 13.229 17.3252 13.6791 16.8751C14.1291 16.425 14.382 15.8145 14.382 15.178L14.379 8.37602Z" fill="white"/>
</g>
<defs>
<clipPath id="clip0_359_10">
<rect width="15.977" height="19.172" fill="white"/>
</clipPath>
</defs>
</svg>
