<svg width="18" height="18" viewBox="0 0 18 18" fill="none" xmlns="http://www.w3.org/2000/svg">
<g clip-path="url(#clip0_359_12)">
<path d="M8.518 11.134C8.32121 11.134 8.13248 11.2122 7.99333 11.3513C7.85417 11.4905 7.776 11.6792 7.776 11.876V14.1C7.776 14.6906 7.54137 15.2571 7.12373 15.6747C6.70608 16.0924 6.13964 16.327 5.549 16.327H3.711C3.12036 16.327 2.55392 16.0924 2.13627 15.6747C1.71863 15.2571 1.484 14.6906 1.484 14.1V3.711C1.484 3.12036 1.71863 2.55392 2.13627 2.13627C2.55392 1.71863 3.12036 1.484 3.711 1.484H5.549C6.13964 1.484 6.70608 1.71863 7.12373 2.13627C7.54137 2.55392 7.776 3.12036 7.776 3.711V5.938C7.776 6.13479 7.85417 6.32352 7.99333 6.46267C8.13248 6.60183 8.32121 6.68 8.518 6.68C8.71479 6.68 8.90352 6.60183 9.04267 6.46267C9.18183 6.32352 9.26 6.13479 9.26 5.938V3.711C9.25868 2.72719 8.86727 1.78405 8.17161 1.08839C7.47595 0.392727 6.53281 0.00132286 5.549 0L3.711 0C2.72719 0.00132286 1.78405 0.392727 1.08839 1.08839C0.392727 1.78405 0.00132286 2.72719 0 3.711L0 14.1C0.00132286 15.0838 0.392727 16.027 1.08839 16.7226C1.78405 17.4183 2.72719 17.8097 3.711 17.811H5.549C6.53281 17.8097 7.47595 17.4183 8.17161 16.7226C8.86727 16.027 9.25868 15.0838 9.26 14.1V11.876C9.26 11.6792 9.18183 11.4905 9.04267 11.3513C8.90352 11.2122 8.71479 11.134 8.518 11.134Z" fill="white"/>
<path d="M16.9729 7.33194L13.5729 3.93194C13.4337 3.7927 13.2449 3.71448 13.0479 3.71448C12.851 3.71448 12.6622 3.7927 12.5229 3.93194C12.3837 4.07118 12.3055 4.26003 12.3055 4.45694C12.3055 4.65385 12.3837 4.8427 12.5229 4.98194L15.6869 8.14594L4.45294 8.16394C4.25615 8.16394 4.06742 8.24212 3.92826 8.38127C3.78911 8.52042 3.71094 8.70915 3.71094 8.90594C3.71094 9.10273 3.78911 9.29146 3.92826 9.43061C4.06742 9.56977 4.25615 9.64794 4.45294 9.64794L15.7259 9.62494L12.5169 12.8339C12.448 12.9029 12.3933 12.9847 12.356 13.0748C12.3187 13.1649 12.2995 13.2614 12.2995 13.3589C12.2995 13.4564 12.3187 13.553 12.356 13.6431C12.3933 13.7331 12.448 13.815 12.5169 13.8839C12.5859 13.9529 12.6677 14.0076 12.7578 14.0449C12.8479 14.0822 12.9444 14.1014 13.0419 14.1014C13.1394 14.1014 13.236 14.0822 13.3261 14.0449C13.4161 14.0076 13.498 13.9529 13.5669 13.8839L16.9669 10.4839C17.3844 10.0663 17.619 9.49997 17.619 8.90944C17.619 8.31891 17.3844 7.75256 16.9669 7.33494L16.9729 7.33194Z" fill="white"/>
</g>
<defs>
<clipPath id="clip0_359_12">
<rect width="17.624" height="17.814" fill="white"/>
</clipPath>
</defs>
</svg>
