<svg width="2892" height="732" viewBox="0 0 2892 732" fill="none" xmlns="http://www.w3.org/2000/svg">
<g clip-path="url(#clip0_266_2)">
<path d="M1743.36 290.12C1736.02 287.66 1732.29 288.23 1730.36 292.54C1725.36 303.42 1720.83 314.47 1714.84 324.89C1706.3 339.74 1694.32 350.16 1677.1 352.49C1655.86 355.423 1634.32 355.369 1613.1 352.33C1598.38 350.17 1592.1 346.98 1588.84 331.33C1587.71 325.597 1587.18 319.763 1587.25 313.92C1587.17 240.12 1587.17 166.32 1587.25 92.52C1587.29 85.1598 1588.52 77.8546 1590.9 70.89C1591.59 68.6384 1592.79 66.5756 1594.4 64.8608C1596.02 63.146 1598 61.8251 1600.21 61C1607.56 58.1876 1615.34 56.662 1623.21 56.49C1632.84 56.42 1632.93 55.99 1633.3 46.66C1633.49 41.82 1631.72 40.01 1626.97 40.11C1618.45 40.29 1609.97 40.11 1601.4 40.11C1567.97 40.11 1534.55 40.11 1501.12 40.11C1495.12 40.11 1494.61 40.69 1494.65 46.77C1494.65 47.77 1494.74 48.77 1494.65 49.77C1494.3 54.5 1496.65 56.52 1501.21 56.4C1509.15 56.19 1516.78 57.96 1524.38 60.04C1531.98 62.12 1537.76 68.34 1538.53 76.34C1539.13 82.64 1539.67 88.98 1539.68 95.34C1539.82 165.3 1539.89 235.26 1539.9 305.22C1540 314.901 1539.6 324.581 1538.7 334.22C1537.85 342.37 1532.14 350.73 1525.35 352.68C1517.35 354.97 1509.35 357.16 1500.79 357.05C1493.94 356.97 1492.7 358.79 1492.79 367.14C1492.79 372.48 1493.7 373.14 1500.58 373.14H1617.91C1652.68 373.14 1687.44 373.08 1722.21 373.2C1726.99 373.2 1729.71 371.59 1730.72 366.77C1731.73 361.95 1733.42 357.16 1734.53 352.29C1738.65 334.29 1742.64 316.22 1746.72 298.2C1747.44 294.75 1747.62 291.55 1743.36 290.12Z" fill="#01465E"/>
<path d="M2154.42 358.2C2152.08 358.127 2149.74 357.903 2147.42 357.53C2137.94 356.19 2129.42 352.85 2122.79 345.61C2113.19 335.14 2108.98 321.85 2103.85 309.09C2100.21 300.01 2097.02 290.74 2093.66 281.54C2090.3 272.34 2086.96 263.11 2083.66 253.89C2080.61 245.46 2077.66 236.99 2074.54 228.6C2071.11 219.43 2067.4 210.37 2064.03 201.19C2059.39 188.56 2055.03 175.81 2050.39 163.19C2045.69 150.41 2040.66 137.75 2035.98 124.97C2031.3 112.19 2027.12 99.25 2022.3 86.53C2017.06 72.71 2011.96 58.8333 2007 44.9C2005.69 41.22 2005.16 36.58 2002 34.32C1999 32.21 1995.94 36.18 1992.66 36.49C1991.83 36.57 1991.02 36.79 1990.2 36.92C1987.2 37.4 1985.73 39.24 1984.66 42C1979.89 54.41 1974.98 66.76 1970.02 79.1C1965.69 89.9 1961.14 100.61 1956.84 111.42C1953.46 119.89 1950.43 128.5 1947.02 136.96C1942.38 148.5 1937.41 159.9 1932.8 171.44C1928.12 183.15 1923.8 195 1919.12 206.7C1914.5 218.24 1909.46 229.61 1904.84 241.15C1900.15 252.84 1896.11 264.81 1891.14 276.38C1883.74 293.61 1877.21 311.18 1868.9 328.06C1860 346.14 1846.61 356.56 1826.32 357.8C1820.75 358.14 1820.07 359.7 1820.07 367.86C1820.07 372.86 1823.24 372.42 1826.48 372.42H1927.75C1930.15 372.42 1931.94 371.84 1932.39 369.02C1933.65 360.92 1931.53 357.94 1923.39 357.83C1916.53 357.665 1909.78 356.089 1903.55 353.2C1898.49 350.94 1895.02 347.2 1894.92 340.91C1894.8 334.06 1896.63 327.85 1898.92 321.51C1902.51 311.51 1905.37 301.26 1908.7 291.17C1912.24 280.45 1916.17 269.87 1919.52 259.09C1921.04 254.2 1923.52 251.98 1928.79 252.09C1947.33 252.29 1965.89 252.16 1984.44 252.17C1999.14 252.17 2013.85 252.27 2028.55 252.11C2033.28 252.11 2035.55 253.71 2037.03 258.49C2041.03 271 2045.77 283.25 2050.18 295.62C2054.92 308.91 2059.89 322.13 2064.18 335.56C2066.74 343.56 2063.18 351.13 2056.73 353.48C2050.64 355.7 2044.6 357.92 2037.88 357.97C2032.76 357.97 2031.41 361.06 2031.78 368.38C2032.03 373.08 2035.28 372.46 2038.24 372.46C2057.45 372.46 2076.66 372.46 2095.89 372.46H2151.54C2160.17 372.46 2160.23 372.31 2159.82 363.87C2159.65 360.15 2158.25 358.24 2154.42 358.2ZM2015.92 233.64H1977.84C1964.31 233.64 1950.78 233.64 1937.25 233.64C1931.54 233.64 1929.49 229.95 1931.84 224.69C1934.66 218.38 1936.66 211.69 1939.11 205.28C1942.21 197.08 1944.94 188.76 1947.98 180.55C1951.76 170.31 1955.3 159.96 1959.31 149.84C1962.66 141.4 1965.31 132.68 1969.31 124.44C1971.73 119.44 1973.31 113.92 1974.95 108.55C1975.62 106.4 1976.36 104.46 1978.18 103.1C1981.53 100.58 1984.18 101.66 1984.96 105.81C1986.25 113.02 1989.26 119.66 1991.84 126.45C1993.54 130.93 1994.91 135.55 1996.46 140.08C2001.69 155.41 2007.14 170.66 2012.46 185.95C2016.46 197.47 2019.97 209.18 2024.72 220.45C2024.87 220.928 2024.98 221.416 2025.05 221.91C2027.68 232.08 2026.46 233.65 2015.92 233.64Z" fill="#01465E"/>
<path d="M1406.42 357.89C1404.58 357.86 1402.75 357.73 1400.93 357.5C1391.46 356.07 1382.93 352.68 1376.4 345.36C1366.93 334.8 1362.67 321.57 1357.62 308.76C1354.15 299.96 1351.04 291.02 1347.79 282.14C1344.31 272.62 1340.85 263.093 1337.4 253.56C1334.34 245.13 1331.33 236.69 1328.2 228.29C1324.73 218.97 1321.05 209.72 1317.61 200.39C1312.95 187.76 1308.49 175.05 1303.83 162.39C1299.17 149.73 1294.29 137.24 1289.68 124.61C1285.07 111.98 1280.68 98.95 1276.04 86.16C1271.13 72.5667 1266.13 59.0067 1261.04 45.48C1259.59 41.62 1258.58 37 1255.79 34.4C1253 31.8 1249.53 36.26 1246.08 36.54C1245.42 36.54 1244.77 36.76 1244.08 36.86C1240.88 37.32 1239.42 39.32 1238.3 42.28C1233.71 54.41 1228.85 66.43 1224.07 78.48C1219.34 90.3667 1214.6 102.247 1209.84 114.12C1206.69 121.967 1203.52 129.813 1200.34 137.66C1196.98 145.95 1193.54 154.22 1190.23 162.53C1186.92 170.84 1183.95 178.96 1180.64 187.1C1175.97 198.63 1171.02 210.04 1166.4 221.58C1161.72 233.28 1157.4 245.13 1152.73 256.82C1148.11 268.36 1142.98 279.7 1138.5 291.29C1132.56 306.65 1126.39 321.84 1117.97 336.06C1110.08 349.39 1097.97 355.64 1083.19 357.46C1074.28 358.56 1073.75 358.82 1073.81 367.65C1073.81 371.08 1075.07 372.42 1078.53 372.41C1112.79 372.343 1147.05 372.343 1181.31 372.41C1183.01 372.41 1184.67 372.33 1185.66 370.59C1188.74 365.19 1185.05 358.1 1178.81 357.88C1172.14 357.701 1165.54 356.396 1159.3 354.02C1151.7 351.1 1148.81 347.29 1148.75 339.02C1148.67 326.49 1154.94 315.65 1158.26 304.02C1162.68 288.56 1168.54 273.51 1173.55 258.21C1174.95 253.91 1177.3 251.92 1181.87 251.98C1192.87 252.12 1203.93 251.98 1214.96 251.98C1237.52 251.98 1260.08 251.98 1282.64 251.98C1285.76 251.98 1288.7 252.14 1289.99 255.76C1292.51 262.76 1295.18 269.76 1297.66 276.83C1304.28 295.63 1311.08 314.38 1317.32 333.31C1320.38 342.61 1319.79 349.75 1307.82 354.17C1302.52 356.165 1296.97 357.375 1291.32 357.76C1286.52 358.08 1285.32 360.85 1285.56 368.03C1285.71 372.69 1288.8 372.28 1291.85 372.28H1406.2C1413.83 372.28 1413.5 372.28 1413.72 364.86C1413.89 359.44 1411 358.06 1406.42 357.89ZM1272.85 233.63C1259.33 233.68 1245.85 233.63 1232.27 233.63C1218.69 233.63 1205.21 233.63 1191.68 233.63C1184.99 233.63 1183.23 230.05 1186.04 223.87C1188.7 218.05 1190.5 211.87 1192.68 205.8C1195.77 197.26 1198.89 188.72 1201.95 180.17C1205.57 170.05 1209.26 159.94 1213.1 149.92C1216.36 141.45 1219.15 132.77 1223.03 124.52C1225.29 119.362 1227.19 114.056 1228.72 108.64C1229.38 106.49 1230.08 104.53 1231.87 103.14C1235.19 100.58 1237.99 101.61 1238.73 105.68C1240.06 113.06 1243.2 119.82 1245.73 126.8C1247.37 131.31 1248.8 135.89 1250.39 140.42C1254.29 151.48 1258.39 162.5 1261.95 173.64C1266.34 187.35 1271.86 200.64 1275.82 214.49C1276.9 218.27 1279.28 221.63 1279.82 225.67C1280.55 231.79 1279.08 233.61 1272.85 233.63Z" fill="#01465E"/>
<path d="M2540.06 363.17C2533.89 361.207 2528.17 358.035 2523.23 353.84C2510.1 343.23 2499.07 330.61 2488.97 317.09C2477.93 302.323 2467.34 287.247 2457.2 271.86C2448.49 258.56 2440.55 244.75 2432.04 231.31C2429.56 227.4 2427.74 223.14 2424.86 219.43C2421.46 215.04 2423.63 210.07 2428.79 207.79C2448.96 198.87 2465.79 186.11 2476.79 166.4C2484.72 152.2 2488.55 136.94 2487.24 121C2485.61 101.17 2480.06 82.43 2464.7 68.26C2457.77 62.0746 2449.88 57.059 2441.34 53.41C2421.84 44.64 2401.01 42.66 2380.13 42.41C2337.51 41.87 2294.88 42.26 2252.26 42.22C2248.58 42.22 2245.2 41.81 2245.56 47.43C2245.97 53.74 2246.34 54.78 2252.35 54.52C2260.87 54.1875 2269.34 55.9021 2277.06 59.52C2280.31 60.9419 2282.95 63.4535 2284.54 66.62C2287.09 71.97 2289.54 77.44 2289.74 83.62C2291.74 161.24 2290.18 238.86 2290.48 316.49C2290.48 326.2 2290.17 336.24 2285 345.05C2279.17 354.99 2269.28 357.66 2258.74 358.81C2255.44 359.17 2252.07 359.03 2248.74 359.48C2246.21 359.83 2243.98 360.81 2243.51 363.97C2242.58 370.22 2243.35 371.22 2249.78 371.22C2289.73 371.22 2329.68 371.22 2369.63 371.22C2372.39 371.22 2376.11 372.43 2376.12 367.42C2376.12 363.42 2376.35 359.7 2370.52 359.42C2367.73 359.29 2364.88 359.11 2362.07 358.85C2346.57 357.37 2336.84 352.33 2332.2 336.55C2331.48 333.71 2331.69 330.717 2332.78 328C2332.73 312.34 2332.68 296.673 2332.65 281C2332.62 265.327 2332.54 249.66 2332.42 234C2332.42 229.66 2333.81 228.12 2338.21 228.29C2347.36 228.66 2356.55 228.09 2365.68 229.21C2366.12 229.871 2366.69 230.436 2367.35 230.87C2367.9 231.207 2368.52 231.4 2369.16 231.429C2369.81 231.459 2370.44 231.325 2371.02 231.04C2372.84 231.9 2374.84 232.41 2376.69 233.22C2377.82 233.691 2378.87 234.339 2379.8 235.14L2380.89 235.9L2381.89 236.81L2381.97 236.89C2382.07 237.67 2382.42 238.396 2382.97 238.96C2383.1 239.081 2383.23 239.191 2383.38 239.29C2383.89 239.612 2384.46 239.801 2385.06 239.84C2386.36 240.993 2387.56 242.258 2388.64 243.62C2389 244.07 2389.35 244.52 2389.64 244.99C2391.01 246.84 2392.23 248.8 2393.41 250.77C2403.05 266.77 2412.57 282.88 2422.14 298.95C2424.14 299.23 2425.14 300.61 2426.14 302.3C2435.72 318.46 2445.66 334.45 2458.86 347.94C2468.19 357.46 2479.01 364.78 2492.35 368.47C2507.53 372.66 2522.94 374.29 2538.52 375.13C2540.98 375.26 2544.18 376.13 2544.6 371.94C2545 368 2544.59 364.48 2540.06 363.17ZM2402.41 204.27C2392.58 209.83 2381.19 212.14 2369.82 212.8C2359.82 213.38 2349.82 213.05 2339.76 213.13C2332.44 213.19 2331.92 212.72 2331.91 205.13C2331.91 184.44 2331.91 163.75 2331.91 138.88C2332.34 120.21 2331.24 97.35 2332.44 74.5C2332.91 65.64 2336.73 61.85 2345.24 59.12C2361.13 54.04 2376.92 55.89 2392.01 60.65C2412.68 67.17 2427.38 80.76 2434.62 102.01C2440.96 120.64 2440.83 139.58 2437.05 158.2C2432.91 178.53 2420.41 194.1 2402.41 204.27Z" fill="#01465E"/>
<path d="M2886 42.27C2852.24 42.2167 2818.48 42.2167 2784.71 42.27C2782.39 42.27 2778.58 41.59 2779.6 45.49C2780.45 48.72 2777.38 54.95 2784.84 54.58C2792.01 54.3162 2799.17 55.5455 2805.84 58.19C2817.84 62.66 2818.21 70.41 2814.21 80.55C2812.29 85.44 2810.02 90.28 2807.68 95.06C2801.98 106.66 2796.03 118.123 2789.84 129.45C2784.84 138.56 2780.1 147.8 2775.11 156.91C2770.45 165.43 2765.56 173.82 2760.86 182.33C2757.6 188.24 2754.39 194.19 2751.39 200.24C2750.53 201.98 2750.07 203.63 2747.71 203.59C2745.09 203.59 2742.52 203.22 2741.43 200.48C2737.71 191.22 2731.82 183.15 2726.98 174.53C2716.61 156.09 2705.86 137.85 2695.42 119.43C2687.03 104.64 2678.36 90.01 2671.09 74.61C2667.84 67.71 2670.23 61.46 2677.5 58.92C2683.88 56.68 2690.09 54.17 2697.2 54.43C2703.44 54.65 2700.49 49.17 2701.13 46.09C2701.77 43.01 2699.81 42.21 2696.99 42.21C2659.22 42.2567 2621.44 42.2567 2583.67 42.21C2580.85 42.21 2578.88 42.82 2579.53 46.05C2580.18 49.28 2577.19 54.05 2583.45 54.53C2586.94 54.81 2590.45 54.36 2593.92 55.12C2612.13 59.12 2621.58 73.06 2630.71 87.28C2635.78 95.2 2640.33 103.46 2645.16 111.54C2649.65 119.04 2654.34 126.43 2658.69 134.01C2665.21 145.36 2671.43 156.87 2677.91 168.23C2682.09 175.56 2686.61 182.71 2690.78 190.04C2695.94 199.1 2701.25 208.09 2705.78 217.44C2708.85 223.74 2712.14 229.89 2712.03 237.6C2711.59 268.32 2712.13 299.05 2711.7 329.77C2711.46 347.28 2701.64 355.35 2686.17 358.49C2680.13 359.584 2674.03 360.349 2667.9 360.78C2663.21 361.2 2662.75 363.93 2662.67 367.63C2662.57 372.12 2665.72 371.17 2668.21 371.17C2690.44 371.21 2712.67 371.21 2734.9 371.17H2768.75C2780.03 371.17 2791.31 371.207 2802.6 371.28C2806.73 371.28 2807.71 369.86 2807.6 366.03C2807.41 361.33 2803.9 361.72 2800.99 360.86C2791.32 357.99 2780.93 359.68 2771.37 355.06C2763.18 351.11 2757.79 344.83 2756.78 336.83C2755.37 325.51 2754.06 314.06 2754.27 302.52C2754.64 283.15 2754.42 263.78 2754.34 244.41C2754.4 238.922 2754.97 233.451 2756.05 228.07C2756.76 224.2 2756.83 220.39 2758.67 216.56C2762.8 207.9 2767.85 199.78 2772.24 191.3C2780.4 175.57 2789.72 160.52 2798.57 145.21C2805.94 132.47 2814.1 120.21 2821.91 107.71C2827.44 98.88 2832.57 89.77 2838.6 81.3C2850.15 65.06 2865.24 54.53 2886.08 54.62C2893.42 54.62 2890.47 48.62 2891.28 45.36C2892.24 41.55 2888.35 42.27 2886 42.27Z" fill="#01465E"/>
<path d="M977.16 223.55C958.77 204.29 935.16 192.71 911.92 180.84C897.22 173.35 882.5 165.84 869.54 155.59C856.28 145.09 847.47 131.59 845.17 114.52C843.838 104.735 844.947 94.7721 848.4 85.52C853.4 71.81 862.4 61.91 875.71 56.02C886.47 51.27 897.71 50.38 909.4 51.26C923.73 52.34 935.89 57.85 945.73 68.03C957.86 80.59 964 96.45 968.84 112.83C970.38 118.07 971.49 119.09 976.91 117.83C978.37 117.48 979.82 117.04 981.3 116.83C985.09 116.28 985.99 114.31 985.62 110.52C984.74 101.4 983.18 92.38 982.01 83.31C980.54 71.93 979.28 60.52 977.85 49.13C977.65 47.55 977.53 45.69 975.35 45.29L975.17 45.12C975.131 44.749 974.979 44.3991 974.734 44.1181C974.488 43.8371 974.162 43.6386 973.8 43.55L973.09 43.3C962.72 39.58 951.99 37.36 941.2 35.3C911.82 29.63 883.09 31.05 855.65 43.64C827.54 56.53 809.43 77.76 803.95 108.76C800.63 127.49 802.54 145.59 811.11 162.76C821.4 183.33 838.47 197.25 857.46 209.15C873.96 219.5 891.93 227.15 908.61 237.23C912.3 239.46 916.01 241.65 919.61 244C925.727 247.779 931.267 252.42 936.06 257.78C944.23 264.35 949.55 272.97 952.76 282.78C956.97 295.58 956.56 308.47 953.19 321.6C947.51 343.69 931.49 356.6 913.33 360.79C897.33 364.47 881.19 363.79 865.91 357.03C855.2 352.28 845.38 346.1 838.39 336.32C825.61 323.06 817.65 307.02 812.62 289.63C809.29 278.15 808.26 277.02 797.36 280.8C793.96 281.98 793 283.98 793.66 287.28C794.38 290.87 795.09 294.47 795.51 298.09C797.74 317.61 801.4 336.9 804.95 356.2C805.83 360.95 808.02 364.11 812.87 366.11C820.87 369.44 829.07 372.11 837.35 374.65C848.173 378.016 859.346 380.129 870.65 380.95C891.39 382.39 911.89 380.82 931.82 373.87C946.82 368.63 960.6 361.37 972.04 350.42C991.66 331.64 1001.64 308.65 1001.18 281.22C1000.8 258.59 992.46 239.56 977.16 223.55Z" fill="#01465E"/>
<path d="M2347.53 508.89C2348.6 511.68 2349.65 514.48 2350.66 517.29C2351.41 519.4 2352.72 520.81 2355.09 520.44C2357.46 520.07 2358.09 518.3 2358.27 516.06C2358.76 510.81 2356.68 505.92 2356.38 500.79C2356.25 498.962 2356.25 497.128 2356.38 495.3C2356.75 490.89 2354.96 488.92 2350.38 488.93C2322.38 489.02 2294.38 488.93 2266.38 488.93C2263.97 488.93 2261.16 488.93 2260.93 491.93C2260.7 494.93 2263.69 495.21 2265.93 495.7C2270.21 496.65 2274.93 496.53 2277.08 501.7C2278.08 503.788 2278.63 506.065 2278.69 508.38C2278.69 541.32 2278.69 574.27 2278.63 607.22C2278.63 616.32 2274.85 620.02 2265.99 621.1C2262.58 621.51 2257.16 621.79 2257.36 625.87C2257.57 630.13 2262.75 628.4 2265.8 628.41C2295.11 628.52 2324.43 628.41 2353.8 628.56C2359.18 628.56 2361.8 627.17 2363.08 621.56C2364.77 613.96 2366.08 606.29 2367.85 598.71C2368.32 596.71 2368.23 594.88 2366.23 594.03C2364.23 593.18 2362.23 594.09 2361.23 596.03C2358.97 600.27 2356.91 604.63 2354.65 608.88C2350.54 616.64 2343.82 620.45 2335.24 620.76C2327.42 621.04 2319.58 620.91 2311.75 620.76C2303.08 620.62 2298.36 615.69 2298.21 607.08C2297.97 593.28 2298.79 579.48 2297.77 565.68C2297.52 562.3 2299.2 560.44 2302.86 560.49C2310.86 560.59 2318.86 560.49 2326.86 560.57C2333.1 560.67 2337.36 564.33 2338.95 570.4C2339.68 573.16 2339.54 577.4 2343.51 577.02C2347.71 576.63 2346.26 572.48 2346.39 569.7C2346.52 566.92 2346.46 564.24 2346.39 561.51C2346.39 559.69 2346.3 557.87 2346.32 556.05C2346.32 555.137 2346.34 554.227 2346.38 553.32C2346.45 551.494 2346.63 549.674 2346.92 547.87L2346.28 536.75C2345.36 536.84 2344.76 536.55 2344.77 535.51C2343.89 535.538 2343.01 535.703 2342.18 536C2341.33 536.332 2340.58 536.872 2339.99 537.571C2339.4 538.27 2339 539.105 2338.82 540C2338.67 540.548 2338.56 541.106 2338.48 541.67C2338.17 544.23 2337.43 546.86 2334.54 547.98C2334.65 549.3 2334.16 549.98 2332.75 549.57C2332.52 549.73 2332.28 549.89 2332.04 550.03C2331.52 550.362 2330.93 550.584 2330.32 550.68C2330.01 550.724 2329.69 550.724 2329.38 550.68C2328.71 552.23 2327.7 551.93 2326.62 551.18C2321.54 552.01 2316.44 551.76 2311.34 551.66C2309.64 551.66 2307.94 551.6 2306.24 551.66C2299.3 551.84 2298.24 550.66 2298.24 543.66C2298.24 530.22 2298.24 516.773 2298.24 503.32C2298.24 501.32 2298.13 499.32 2300.16 498.02C2300.63 496.96 2301.33 496.5 2302.45 497.14C2308.52 496.767 2314.58 496.673 2320.65 496.86C2322.65 496.92 2324.67 497.01 2326.72 497.13C2336.86 495.51 2344 499.52 2347.53 508.89Z" fill="#FCAE03"/>
<path d="M2139.1 592.78C2138.56 592.555 2137.98 592.441 2137.39 592.445C2136.8 592.448 2136.22 592.569 2135.68 592.8C2135.14 593.031 2134.66 593.368 2134.25 593.79C2133.84 594.213 2133.52 594.712 2133.31 595.26C2132.36 597.55 2131.28 599.783 2130.07 601.95C2126.36 607.82 2124.26 614.54 2116.49 617.62C2106.49 621.62 2096.4 620.62 2086.49 619.75C2078.49 619.08 2074.49 614.75 2074.68 606.13C2075.18 585.85 2074.85 565.55 2074.85 545.26C2074.85 532.46 2074.85 519.65 2074.85 506.84C2074.85 500.18 2077.41 497.59 2083.98 497.04C2086.13 496.887 2088.26 496.477 2090.32 495.82C2092.18 495.19 2094.11 494.18 2093.74 491.6C2093.37 489.02 2091.52 488.4 2089.38 488.4C2072.4 488.353 2055.42 488.333 2038.44 488.34C2036.44 488.34 2034.67 489.04 2034.44 491.28C2034.21 493.52 2035.13 495.58 2037.78 496.03C2040.22 496.545 2042.69 496.879 2045.18 497.03C2048.18 497.1 2050.04 498.47 2051.51 501.03C2053.32 504.019 2054.25 507.457 2054.19 510.95C2054.01 520.6 2054.11 530.25 2054.11 539.89C2054.11 561.68 2054.16 583.47 2054.11 605.26C2054.11 615.64 2050.36 619.65 2040.48 620.4C2039.81 620.41 2039.14 620.494 2038.48 620.65C2035.56 621.53 2033.93 623.49 2034.27 626.57C2034.61 629.65 2037.32 629.06 2039.35 629.06C2054.17 629.06 2068.99 629.06 2083.81 629.06H2128.81C2131.34 629.06 2134.02 629.26 2134.81 626C2137.12 616.68 2139.43 607.36 2141.63 598C2142.19 595.73 2141.75 593.59 2139.1 592.78Z" fill="#FCAE03"/>
<path d="M1911.24 592.81C1908.88 592.01 1906.85 592.61 1905.63 594.74C1904.32 597.04 1903.45 599.58 1902.16 601.89C1898.39 608.61 1895.51 615.68 1886.7 618.27C1876.43 621.27 1866.28 620.72 1856.16 619.27C1849.76 618.33 1846.91 614.37 1846.9 609.18C1846.86 574.72 1846.86 540.26 1846.9 505.8C1846.9 500.29 1849.9 497.47 1855.6 497.12C1858.43 497.044 1861.21 496.362 1863.75 495.12C1864.45 494.846 1865.04 494.333 1865.41 493.672C1865.77 493.011 1865.89 492.242 1865.75 491.5C1865.66 490.744 1865.31 490.042 1864.76 489.51C1864.22 488.977 1863.51 488.646 1862.75 488.57C1861.09 488.377 1859.42 488.3 1857.75 488.34C1843.42 488.34 1829.09 488.24 1814.75 488.4C1811.75 488.4 1807.14 486.53 1806.54 491.4C1805.88 496.89 1811.08 496.24 1814.37 496.78C1823.03 498.22 1826.14 501.66 1826.14 510.59C1826.14 529.563 1826.14 548.54 1826.14 567.52C1826.14 580.34 1826.25 593.16 1826.14 605.97C1826.03 615.77 1822.14 619.77 1812.75 620.35C1812.25 620.348 1811.75 620.382 1811.26 620.45C1808.09 621.12 1806.1 622.95 1806.34 626.32C1806.6 629.92 1809.57 629.01 1811.72 629.01C1826.55 629.07 1841.38 629.01 1856.21 629.01H1900.7C1903.21 629.01 1905.77 629.25 1906.86 626.08C1910.03 616.79 1910.79 606.92 1913.68 597.56C1913.86 597.089 1913.94 596.586 1913.91 596.083C1913.89 595.579 1913.75 595.087 1913.52 594.639C1913.29 594.19 1912.97 593.796 1912.58 593.481C1912.18 593.165 1911.73 592.937 1911.24 592.81Z" fill="#FCAE03"/>
<path d="M1447 489.51H1406.53C1405.32 489.51 1404.12 489.72 1403.75 491.1C1403.55 491.746 1403.58 492.438 1403.83 493.066C1404.08 493.694 1404.53 494.22 1405.11 494.56C1406.39 495.343 1407.84 495.815 1409.33 495.94C1418.19 497.03 1420.83 500.6 1418.78 509.46C1416.53 519.153 1414.08 528.79 1411.41 538.37C1406.6 555.65 1401.61 572.87 1396.58 590.08C1395.91 592.37 1395.44 595.8 1392.72 595.87C1390 595.94 1390.13 592.46 1389.39 590.37C1385.14 578.37 1381 566.26 1376.77 554.21C1373.2 544.04 1369.56 533.9 1365.94 523.75C1362.55 514.23 1359.18 504.7 1355.69 495.21C1354.92 493.13 1353.64 491.36 1350.92 491.61C1348.2 491.86 1348 493.94 1347.39 495.82C1340.46 517.273 1333.53 538.733 1326.6 560.2C1323.18 570.79 1319.76 581.37 1316.26 591.93C1315.75 593.46 1315.16 595.43 1313.11 595.33C1310.78 595.2 1310.59 593.01 1310.11 591.28C1308.31 584.75 1306.65 578.19 1304.74 571.7C1298.64 550.9 1292.29 530.17 1286.37 509.32C1283.79 500.26 1285.66 497.78 1294.78 495.64C1296.78 495.18 1298.94 494.49 1298.68 491.91C1298.42 489.33 1296.29 489.51 1294.43 489.5H1273C1266 489.5 1259 489.5 1252 489.5C1250.28 489.5 1248 488.91 1247.72 491.64C1247.48 493.97 1249.16 494.97 1251.11 495.17C1261.28 496.27 1265.11 503.63 1267.8 512.02C1270.8 521.49 1273.8 531.02 1276.69 540.5C1281.69 556.63 1286.69 572.76 1291.59 588.93C1295.59 602.1 1299.3 615.33 1303.15 628.53C1303.77 630.66 1305.05 631.94 1307.47 631.89C1309.68 631.89 1311.37 631.25 1312.02 628.89C1312.78 626.17 1313.56 623.45 1314.42 620.77C1323.97 591.07 1333.54 561.383 1343.13 531.71C1343.6 530.23 1343.99 528.07 1346.13 528.32C1348.02 528.54 1349.19 529.97 1349.82 531.94C1351.82 538.25 1353.95 544.53 1356.13 550.79C1362.74 569.73 1369.38 588.66 1376.03 607.58C1378.5 614.58 1381.03 621.64 1383.39 628.71C1384.15 630.97 1385.47 631.94 1387.8 631.87C1390.13 631.8 1391.32 630.87 1392.01 628.49C1394.01 621.83 1395.62 615.08 1397.85 608.49C1401.72 597.03 1404.85 585.33 1408.43 573.76C1412.95 559.04 1417.43 544.3 1422.2 529.65C1424.82 521.65 1427.66 513.65 1431.05 505.87C1433.52 500.23 1437.5 495.76 1444.62 495.87C1445.94 495.738 1447.21 495.303 1448.33 494.6C1448.94 494.294 1449.41 493.78 1449.67 493.152C1449.93 492.524 1449.95 491.824 1449.74 491.18C1449.38 489.75 1448.19 489.51 1447 489.51Z" fill="#FCAE03"/>
<path d="M1679.35 622.73C1678.51 622.182 1677.56 621.82 1676.57 621.67C1668.17 621.38 1664.57 615.67 1661.8 608.9C1656.89 597.11 1652.71 585.05 1648.48 573.01C1644.25 560.97 1639.41 549.46 1635.09 537.61C1629.17 521.41 1623.54 505.12 1617.69 488.9C1616.49 485.58 1612.99 484.9 1610.49 487.46C1609.25 488.801 1608.29 490.366 1607.64 492.07C1600.52 509.92 1593.59 527.86 1586.39 545.68C1578.62 564.92 1570.59 584.04 1562.75 603.25C1559.03 612.39 1555.06 621.11 1543.35 622.07C1541.35 622.23 1539.29 623.24 1539.64 625.87C1539.99 628.5 1542.29 627.87 1544 627.87C1556.49 627.91 1568.98 627.91 1581.46 627.87C1583.01 627.87 1585.17 628.54 1585.6 626.23C1586.03 623.92 1584.24 622.99 1582.5 622.23C1581.42 621.816 1580.28 621.563 1579.13 621.48C1571.32 620.82 1568.54 617.48 1570.66 610.09C1573.4 600.55 1576.66 591.18 1579.88 581.78C1580.98 578.56 1583.03 576.66 1586.88 576.72C1599.7 576.91 1612.53 576.87 1625.35 576.72C1628.47 576.72 1630.27 577.72 1631.35 580.72C1635.07 591.01 1638.98 601.23 1642.73 611.5C1644.28 615.75 1642.38 619.5 1638.08 621.03C1636.52 621.57 1634.84 621.76 1633.24 622.22C1631.41 622.74 1629.52 623.6 1629.9 625.84C1630.25 627.91 1632.31 627.84 1633.96 627.84C1641.29 627.84 1648.61 627.84 1655.96 627.84C1663.31 627.84 1670.61 627.84 1677.96 627.84C1679.39 627.84 1681.21 628.23 1681.6 626.17C1682 624.51 1680.7 623.48 1679.35 622.73ZM1620.47 568.64C1615.47 568.76 1610.47 568.64 1605.47 568.64C1600.64 568.64 1595.81 568.64 1590.98 568.64C1587.43 568.64 1585.98 567 1587.64 563.53C1591.87 554.69 1594.55 545.25 1598.1 536.15C1599.97 531.37 1602.32 526.77 1603.48 521.7C1603.89 519.93 1605.06 518.17 1607.17 518.12C1609.28 518.07 1609.72 520.02 1610.17 521.59C1614.05 535.67 1619.48 549.23 1624.34 562.97C1625.89 567.43 1624.17 568.55 1620.47 568.64Z" fill="#FCAE03"/>
<path d="M2526.18 645.18L2562.43 681.43C2564.01 683.003 2566.1 683.944 2568.33 684.076C2570.55 684.207 2572.75 683.52 2574.5 682.143C2576.25 680.767 2577.43 678.797 2577.83 676.605C2578.23 674.414 2577.81 672.153 2576.65 670.25L2534 627.64C2533.46 627.091 2532.98 626.488 2532.57 625.84L2521.63 614.9C2520.74 625.211 2522.29 635.587 2526.18 645.18Z" fill="#C5CCBF"/>
<path d="M2567.5 565.79L2584.11 582.4C2584.56 582.722 2584.98 583.077 2585.38 583.46L2624.66 622.75C2626.54 624.057 2628.84 624.614 2631.11 624.312C2633.38 624.01 2635.46 622.871 2636.93 621.117C2638.4 619.364 2639.17 617.123 2639.07 614.835C2638.98 612.547 2638.03 610.376 2636.42 608.75L2580.48 552.81C2578.81 551.142 2576.56 550.184 2574.19 550.133C2571.83 550.083 2569.54 550.945 2567.8 552.54L2567.27 553.07C2565.65 554.806 2564.77 557.103 2564.81 559.477C2564.86 561.85 2565.82 564.114 2567.5 565.79Z" fill="#C5CCBF"/>
<path d="M2520.75 614L2504.23 597.48L2504.12 597.76L2503.58 597.23C2503.58 597.23 2501.91 595.57 2499.48 592.73L2498.56 591.8C2496.85 590.091 2494.53 589.13 2492.11 589.13C2489.7 589.13 2487.38 590.091 2485.67 591.8C2483.96 593.509 2483 595.828 2483 598.245C2483 600.662 2483.96 602.981 2485.67 604.69L2524.43 643.45C2521.01 634.035 2519.75 623.968 2520.75 614Z" fill="#5BB462"/>
<path d="M2615.67 672.16C2617.53 673.498 2619.82 674.087 2622.09 673.812C2624.36 673.536 2626.45 672.415 2627.93 670.672C2629.42 668.929 2630.19 666.692 2630.1 664.405C2630.01 662.118 2629.06 659.949 2627.44 658.33L2550.68 581.57C2548.97 579.861 2546.65 578.9 2544.23 578.9C2541.82 578.9 2539.5 579.861 2537.79 581.57C2536.08 583.279 2535.12 585.598 2535.12 588.015C2535.12 590.432 2536.08 592.751 2537.79 594.46L2551.43 608.09C2551.84 608.395 2552.23 608.73 2552.6 609.09L2615.67 672.16Z" fill="#C5CCBF"/>
<path d="M2563.85 559.3C2563.85 558.11 2566.12 553.3 2566.51 552.23C2566.51 552.23 2538.76 579.23 2537.6 580.23C2538.6 579.93 2543.2 577.77 2544.23 577.77C2545.57 577.767 2546.9 578.031 2548.14 578.546C2549.38 579.061 2550.5 579.817 2551.45 580.77L2567.37 596.69C2566.44 594.764 2566.14 592.598 2566.5 590.491C2566.85 588.385 2567.86 586.441 2569.37 584.93L2570.86 583.44C2572.21 582.097 2573.9 581.154 2575.75 580.717C2577.61 580.279 2579.54 580.363 2581.35 580.96L2566.85 566.46C2565.9 565.524 2565.15 564.409 2564.63 563.18C2564.12 561.951 2563.85 560.632 2563.85 559.3Z" fill="#C5CCBF"/>
<path d="M2481.9 598.23C2481.9 596.51 2482.33 594.817 2483.16 593.31C2483.99 591.802 2485.18 590.527 2486.63 589.605C2488.08 588.683 2489.75 588.143 2491.46 588.036C2493.18 587.928 2494.89 588.256 2496.45 588.99C2491.87 583.183 2487.93 576.904 2484.68 570.26C2474.68 549.46 2475.91 530.26 2488.14 514.68C2510.38 486.37 2544.14 456.61 2544.46 456.31L2544.81 456L2545.14 456.33C2545.14 456.38 2549.55 460.6 2555.46 460.53C2559.38 460.46 2563.14 458.53 2566.63 454.81L2566.99 454.44L2586.74 474.19L2586.61 474.5C2586.55 474.64 2580.97 488.14 2589.85 498.75L2590.14 499.1L2589.82 499.42L2525.23 564.53C2525.08 564.66 2513.29 574.89 2504.68 596.35L2520.92 612.59C2522.58 600.597 2528.16 589.489 2536.79 581L2537.01 580.76L2537.21 580.58C2539.41 578.394 2541.75 576.353 2544.21 574.47L2627.86 491.55C2628.28 491.128 2628.62 490.626 2628.85 490.074C2629.08 489.521 2629.19 488.928 2629.19 488.33C2629.19 487.732 2629.07 487.14 2628.83 486.59C2628.6 486.04 2628.25 485.543 2627.82 485.13L2559.1 418.49C2558.27 417.679 2557.15 417.226 2555.99 417.226C2554.82 417.226 2553.7 417.679 2552.87 418.49L2482.33 485.6C2474.26 493.281 2467.79 502.491 2463.31 512.693C2458.83 522.895 2456.43 533.887 2456.23 545.028C2456.04 556.169 2458.06 567.237 2462.18 577.59C2466.3 587.942 2472.44 597.372 2480.24 605.33L2519.72 640.33L2484.87 605.49C2483.92 604.537 2483.17 603.405 2482.66 602.159C2482.15 600.912 2481.89 599.577 2481.9 598.23Z" fill="#5BB462"/>
<path d="M2531.39 623.06C2530.92 621.307 2530.91 619.461 2531.38 617.706C2531.84 615.95 2532.76 614.348 2534.04 613.06L2537.98 609.12C2539.3 607.8 2540.96 606.863 2542.77 606.409C2544.59 605.954 2546.49 606 2548.28 606.54L2537 595.23C2535.7 593.927 2534.77 592.295 2534.32 590.508C2533.87 588.721 2533.91 586.845 2534.44 585.08C2527.5 593.088 2523.11 602.983 2521.82 613.5L2531.39 623.06Z" fill="#C5CCBF"/>
<path d="M2632.86 674.63C2631.09 676.396 2630.1 678.792 2630.1 681.29C2630.1 683.788 2631.09 686.183 2632.86 687.95L2637.43 692.51C2638.75 693.824 2640.43 694.717 2642.25 695.079C2644.08 695.44 2645.97 695.253 2647.69 694.54C2649.41 693.828 2650.87 692.622 2651.91 691.076C2652.94 689.529 2653.5 687.711 2653.5 685.85C2653.5 684.984 2653.37 684.123 2653.14 683.29L2642.08 672.23C2641.25 671.994 2640.39 671.873 2639.52 671.87C2638.28 671.866 2637.06 672.108 2635.91 672.582C2634.77 673.056 2633.73 673.752 2632.86 674.63Z" fill="#C5CCBF"/>
<path d="M2567.5 552.81C2567.42 552.89 2567.35 552.98 2567.27 553.07L2567.8 552.54L2567.5 552.81Z" fill="#C3CEBE"/>
<path d="M2521.67 614.9L2520.75 613.98C2519.75 623.948 2521.01 634.015 2524.43 643.43L2526.18 645.18C2522.31 635.584 2520.76 625.208 2521.67 614.9Z" fill="#C3CEBE"/>
<path d="M2520.92 612.59L2521.83 613.5C2523.12 602.983 2527.51 593.088 2534.45 585.08C2534.91 583.568 2535.71 582.182 2536.79 581.03C2528.16 589.511 2522.58 600.607 2520.92 612.59Z" fill="#C3CEBE"/>
<path d="M2499.46 591.13C2493.99 584.61 2489.32 577.451 2485.57 569.81C2478.75 555.56 2473.8 534.54 2488.92 515.29C2509.92 488.59 2541.18 460.56 2544.78 457.36C2547.72 459.988 2551.52 461.468 2555.46 461.53C2559.54 461.46 2563.46 459.53 2567.01 455.87L2585.56 474.43C2584.77 476.56 2580.68 488.95 2588.79 499.04L2524.55 563.8C2524.43 563.9 2512.55 574.14 2503.91 595.58L2504.68 596.35C2513.29 574.89 2525.08 564.66 2525.23 564.53L2589.82 499.42L2590.14 499.1L2589.85 498.75C2580.97 488.14 2586.55 474.64 2586.61 474.5L2586.74 474.19L2567 454.44L2566.64 454.81C2563.15 458.54 2559.39 460.46 2555.47 460.53C2549.56 460.6 2545.19 456.38 2545.15 456.33L2544.82 456L2544.47 456.31C2544.13 456.61 2510.39 486.37 2488.15 514.68C2475.92 530.24 2474.73 549.46 2484.69 570.26C2487.93 576.907 2491.88 583.189 2496.45 589C2497.52 589.493 2498.5 590.17 2499.34 591L2499.46 591.13Z" fill="#5BB462"/>
<path d="M2503.58 597.21L2504.12 597.74L2504.23 597.46L2499.48 592.71C2501.91 595.55 2503.54 597.17 2503.58 597.21Z" fill="#5BB462"/>
<path d="M2541.14 523.43C2538.14 520.49 2534.41 517.1 2534.14 512.9C2534.06 511.596 2534.29 510.291 2534.83 509.1C2535.17 508.382 2535.65 507.737 2536.24 507.2L2547.74 518.92L2548.89 514.02L2539.69 504.64C2543.31 503.33 2546.4 505.35 2549.46 508.27L2553.92 512.86L2555 508L2535.64 488.27L2534.54 492.9L2539.78 498.29C2539.09 498.338 2538.4 498.459 2537.73 498.65C2536.8 498.94 2535.91 499.361 2535.09 499.9L2529.39 494.09L2528.28 499.09L2531.98 502.86C2528.03 508.1 2528.98 514.92 2534.1 520.97L2507.38 523.62L2512.56 528.9L2538.26 526.25L2541.14 523.43Z" fill="#5BB462"/>
<path d="M2574 550.13C2575.21 550.127 2576.4 550.362 2577.51 550.822C2578.63 551.282 2579.64 551.958 2580.49 552.81L2636.43 608.75C2638.04 610.376 2638.99 612.547 2639.08 614.835C2639.18 617.123 2638.41 619.364 2636.94 621.117C2635.47 622.871 2633.39 624.01 2631.12 624.312C2628.85 624.614 2626.55 624.057 2624.67 622.75L2626.81 624.89C2627.82 625.218 2628.88 625.387 2629.94 625.39C2631.95 625.392 2633.91 624.798 2635.58 623.683C2637.25 622.569 2638.55 620.983 2639.32 619.128C2640.09 617.274 2640.29 615.233 2639.89 613.264C2639.5 611.295 2638.53 609.488 2637.11 608.07L2581.17 552.13C2579.82 550.78 2578.11 549.84 2576.24 549.419C2574.38 548.998 2572.43 549.113 2570.63 549.75L2567.81 552.54C2569.5 550.988 2571.71 550.128 2574 550.13Z" fill="#C5CCBF"/>
<path d="M2567.5 565.79C2565.82 564.114 2564.86 561.85 2564.81 559.477C2564.77 557.103 2565.65 554.806 2567.27 553.07L2564.46 555.85C2563.8 557.663 2563.67 559.626 2564.09 561.509C2564.51 563.392 2565.46 565.117 2566.82 566.48L2581.32 580.98C2582.32 581.309 2583.26 581.788 2584.11 582.4L2567.5 565.79Z" fill="#C5CCBF"/>
<path d="M2564.46 555.85L2567.27 553.07C2567.35 552.98 2567.42 552.89 2567.5 552.81L2567.8 552.54L2570.62 549.75C2569.19 550.245 2567.89 551.059 2566.82 552.13C2565.77 553.181 2564.96 554.452 2564.46 555.85Z" fill="#C3CEBE"/>
<path d="M2567.37 596.71L2551.45 580.79C2550.5 579.837 2549.38 579.081 2548.14 578.566C2546.9 578.051 2545.57 577.787 2544.23 577.79C2543.21 577.793 2542.2 577.945 2541.23 578.24C2538.81 580.346 2536.54 582.629 2534.46 585.07C2533.93 586.835 2533.89 588.711 2534.34 590.498C2534.79 592.285 2535.72 593.917 2537.02 595.22L2548.29 606.49C2549.42 606.839 2550.49 607.376 2551.44 608.08L2537.8 594.45C2536.09 592.741 2535.13 590.422 2535.13 588.005C2535.13 585.588 2536.09 583.269 2537.8 581.56C2539.51 579.851 2541.83 578.89 2544.25 578.89C2546.66 578.89 2548.98 579.851 2550.69 581.56L2627.45 658.32C2629.07 659.939 2630.02 662.108 2630.11 664.395C2630.2 666.682 2629.43 668.919 2627.94 670.662C2626.46 672.405 2624.37 673.526 2622.1 673.802C2619.83 674.077 2617.54 673.488 2615.68 672.15L2618.09 674.55C2619.03 674.835 2620.01 674.979 2621 674.98C2622.73 674.983 2624.43 674.545 2625.95 673.709C2627.46 672.872 2628.74 671.664 2629.66 670.198C2630.58 668.731 2631.11 667.056 2631.2 665.328C2631.3 663.6 2630.95 661.876 2630.19 660.32L2569.35 599.49C2568.54 598.677 2567.88 597.738 2567.37 596.71Z" fill="#C5CCBF"/>
<path d="M2536.79 581L2537.21 580.58L2537.01 580.76L2536.79 581Z" fill="#C3CEBE"/>
<path d="M2536.79 581C2535.71 582.152 2534.91 583.538 2534.45 585.05C2536.53 582.609 2538.8 580.326 2541.22 578.22C2539.72 578.688 2538.35 579.495 2537.22 580.58L2536.79 581Z" fill="#C3CEBE"/>
<path d="M2650.74 679.2L2646.18 674.63C2645.04 673.491 2643.63 672.664 2642.08 672.23L2653.14 683.29C2652.71 681.742 2651.88 680.332 2650.74 679.2Z" fill="#C5CCBF"/>
<path d="M2584.11 582.4L2623.44 621.73C2623.82 622.098 2624.23 622.433 2624.66 622.73L2585.38 583.44C2584.98 583.064 2584.56 582.716 2584.11 582.4Z" fill="#C5CCBF"/>
<path d="M2623.44 621.73L2584.11 582.4C2583.26 581.788 2582.32 581.309 2581.32 580.98L2622.76 622.41C2623.88 623.543 2625.25 624.393 2626.76 624.89L2624.62 622.75C2624.2 622.445 2623.8 622.103 2623.44 621.73Z" fill="#C5CCBF"/>
<path d="M2567.37 596.71C2567.88 597.743 2568.56 598.685 2569.37 599.5L2630.21 660.33C2629.7 659.299 2629.03 658.359 2628.21 657.55L2567.37 596.71Z" fill="#C5CCBF"/>
<path d="M2615.67 672.16L2552.6 609.08C2552.23 608.72 2551.84 608.385 2551.43 608.08L2614.55 671.21C2614.9 671.551 2615.28 671.868 2615.67 672.16Z" fill="#C5CCBF"/>
<path d="M2576.65 670.25C2576.28 669.629 2575.83 669.054 2575.32 668.54L2532.61 625.84C2533.02 626.488 2533.5 627.091 2534.04 627.64L2576.65 670.25Z" fill="#C5CCBF"/>
<path d="M2614.55 671.22L2551.43 608.09C2550.48 607.386 2549.41 606.849 2548.28 606.5L2613.77 672C2614.97 673.199 2616.45 674.079 2618.08 674.56L2615.67 672.16C2615.28 671.871 2614.9 671.557 2614.55 671.22Z" fill="#C5CCBF"/>
<path d="M2521.67 614.9L2532.61 625.84C2532.07 624.978 2531.66 624.041 2531.39 623.06L2521.83 613.5C2521.77 614 2521.72 614.43 2521.67 614.9Z" fill="#C3CEBE"/>
<path d="M2576.25 667.94L2576.1 667.76L2534.84 626.51C2534.9 626.57 2534.94 626.63 2535 626.68L2576.25 667.94Z" fill="#C5CCBF"/>
<path d="M2578 675C2578 676.803 2577.47 678.566 2576.47 680.066C2575.46 681.566 2574.04 682.734 2572.37 683.424C2570.71 684.114 2568.87 684.293 2567.11 683.94C2565.34 683.587 2563.71 682.717 2562.44 681.44L2526.19 645.19C2526.56 646.07 2526.8 646.57 2526.82 646.61L2527.57 648.12L2561.66 682.22C2563.25 683.818 2565.32 684.845 2567.55 685.14C2569.79 685.436 2572.06 684.984 2574.01 683.854C2575.96 682.725 2577.48 680.981 2578.33 678.897C2579.19 676.812 2579.33 674.503 2578.73 672.33L2576.66 670.26C2577.54 671.685 2578 673.326 2578 675Z" fill="#C5CCBF"/>
<path d="M2504.4 597L2504.23 597.42L2520.75 614C2520.8 613.54 2520.86 613.08 2520.92 612.61L2504.68 596.37L2504.4 597Z" fill="#5BB462"/>
<path d="M2503.75 596C2503.81 595.87 2503.86 595.75 2503.91 595.62L2499.46 591.17C2501.43 593.49 2503 595.16 2503.75 596Z" fill="#5BB462"/>
<path d="M2521.67 614.9C2521.67 614.43 2521.77 613.97 2521.83 613.5L2520.92 612.59C2520.86 613.06 2520.8 613.52 2520.75 613.98L2521.67 614.9Z" fill="#C3CEBE"/>
<path d="M2526.18 645.18L2524.43 643.43C2524.64 644 2523.65 643.21 2523.83 643.65L2519.74 640.29L2527.56 648.11L2526.81 646.6C2526.81 646.6 2526.55 646.06 2526.18 645.18Z" fill="#C3CEBE"/>
<path d="M2504.68 596.35L2503.91 595.58C2503.91 595.71 2503.81 595.83 2503.75 595.96C2502.98 595.16 2501.43 593.49 2499.46 591.13L2499.34 591C2498.5 590.17 2497.52 589.493 2496.45 589C2497.55 590.4 2498.57 591.65 2499.45 592.72L2504.2 597.47L2504.37 597.05L2504.68 596.35Z" fill="#5BB462"/>
<path d="M2483 598.23C2483 596.426 2483.53 594.661 2484.53 593.16C2485.53 591.659 2486.96 590.489 2488.62 589.798C2490.29 589.107 2492.12 588.927 2493.89 589.279C2495.66 589.632 2497.29 590.503 2498.56 591.78L2499.48 592.71C2498.57 591.64 2497.55 590.39 2496.48 588.99C2494.31 587.969 2491.84 587.748 2489.52 588.365C2487.2 588.982 2485.17 590.398 2483.79 592.364C2482.41 594.33 2481.76 596.72 2481.97 599.114C2482.18 601.507 2483.22 603.751 2484.92 605.45L2519.77 640.29L2524.84 645.37C2524.67 644.92 2524.67 644 2524.46 643.43L2485.7 604.67C2484.85 603.829 2484.17 602.826 2483.7 601.721C2483.24 600.615 2483 599.429 2483 598.23Z" fill="#5BB462"/>
<path d="M2535 626.68C2534.94 626.68 2534.9 626.57 2534.84 626.51L2531.39 623.06C2531.66 624.041 2532.07 624.978 2532.61 625.84L2575.32 668.54C2575.83 669.054 2576.28 669.629 2576.65 670.25L2578.72 672.32C2578.28 670.675 2577.43 669.168 2576.25 667.94L2535 626.68Z" fill="#C5CCBF"/>
<path d="M2651.09 678.85L2646.53 674.28C2645.83 673.581 2645.03 672.991 2644.15 672.53L2652.85 681.23C2652.39 680.353 2651.79 679.551 2651.09 678.85Z" fill="#C5CCBF"/>
<path d="M2653.5 685.85C2653.5 687.711 2652.94 689.529 2651.91 691.076C2650.88 692.622 2649.41 693.828 2647.69 694.54C2645.97 695.253 2644.08 695.44 2642.25 695.079C2640.43 694.717 2638.75 693.824 2637.43 692.51L2632.86 687.95C2631.54 686.633 2630.65 684.954 2630.28 683.127C2629.92 681.3 2630.11 679.406 2630.82 677.685C2631.53 675.964 2632.74 674.493 2634.29 673.458C2635.84 672.423 2637.66 671.87 2639.52 671.87C2640.39 671.873 2641.25 671.994 2642.08 672.23L2641.41 671.57C2639.33 671.159 2637.16 671.429 2635.25 672.341C2633.33 673.252 2631.75 674.757 2630.75 676.633C2629.76 678.509 2629.39 680.656 2629.7 682.757C2630.02 684.858 2631 686.801 2632.51 688.3L2637.08 692.86C2638.58 694.359 2640.52 695.336 2642.62 695.648C2644.72 695.961 2646.86 695.592 2648.74 694.595C2650.61 693.599 2652.11 692.028 2653.03 690.114C2653.94 688.199 2654.21 686.042 2653.81 683.96L2653.14 683.29C2653.38 684.123 2653.5 684.984 2653.5 685.85Z" fill="#C5CCBF"/>
<path d="M2644.15 672.53C2643.29 672.061 2642.37 671.724 2641.41 671.53L2642.08 672.19C2643.63 672.624 2645.04 673.451 2646.18 674.59L2650.74 679.16C2651.88 680.292 2652.71 681.702 2653.14 683.25L2653.81 683.92C2653.61 682.966 2653.28 682.046 2652.81 681.19L2644.15 672.53Z" fill="#C5CCBF"/>
<path d="M1096.36 645.18L1060.11 681.43C1058.54 683.016 1056.44 683.968 1054.21 684.106C1051.98 684.243 1049.78 683.556 1048.02 682.175C1046.27 680.794 1045.08 678.815 1044.69 676.617C1044.3 674.418 1044.73 672.152 1045.9 670.25L1088.5 627.64C1089.04 627.096 1089.52 626.492 1089.93 625.84L1100.87 614.9C1101.78 625.208 1100.23 635.584 1096.36 645.18Z" fill="#C5CCBF"/>
<path d="M1055 565.79L1038.39 582.4C1037.95 582.723 1037.52 583.077 1037.13 583.46L997.84 622.75C995.961 624.079 993.652 624.653 991.37 624.358C989.088 624.063 987 622.921 985.521 621.158C984.042 619.396 983.279 617.142 983.385 614.843C983.49 612.545 984.456 610.37 986.09 608.75L1042.02 552.81C1043.69 551.142 1045.95 550.183 1048.31 550.132C1050.67 550.082 1052.97 550.944 1054.71 552.54L1055.24 553.07C1056.86 554.808 1057.73 557.106 1057.69 559.478C1057.64 561.851 1056.68 564.114 1055 565.79Z" fill="#C5CCBF"/>
<path d="M1101.79 614L1118.31 597.48L1118.42 597.76L1118.96 597.23C1118.96 597.23 1120.64 595.57 1123.06 592.73L1123.99 591.8C1125.7 590.092 1128.02 589.133 1130.43 589.134C1132.85 589.135 1135.17 590.096 1136.88 591.805C1138.58 593.514 1139.54 595.832 1139.54 598.249C1139.54 600.665 1138.58 602.982 1136.87 604.69L1098.11 643.45C1101.54 634.037 1102.8 623.969 1101.79 614Z" fill="#5BB462"/>
<path d="M1006.88 672.16C1005.02 673.498 1002.73 674.087 1000.46 673.812C998.186 673.536 996.101 672.415 994.618 670.672C993.134 668.929 992.361 666.692 992.453 664.405C992.544 662.118 993.492 659.949 995.11 658.33L1071.87 581.57C1073.58 579.862 1075.9 578.903 1078.31 578.904C1080.73 578.905 1083.05 579.866 1084.75 581.575C1086.46 583.284 1087.42 585.602 1087.42 588.019C1087.42 590.435 1086.46 592.752 1084.75 594.46L1071.12 608.09C1070.71 608.395 1070.32 608.73 1069.95 609.09L1006.88 672.16Z" fill="#C5CCBF"/>
<path d="M1058.7 559.3C1058.7 558.11 1056.43 553.3 1056.03 552.23C1056.03 552.23 1083.78 579.23 1084.94 580.23C1083.94 579.93 1079.35 577.77 1078.31 577.77C1076.97 577.768 1075.64 578.032 1074.4 578.547C1073.16 579.062 1072.04 579.817 1071.09 580.77L1055.17 596.69C1056.1 594.765 1056.41 592.598 1056.05 590.49C1055.69 588.382 1054.69 586.439 1053.17 584.93L1051.69 583.44C1050.34 582.097 1048.65 581.154 1046.8 580.717C1044.94 580.279 1043.01 580.363 1041.2 580.96L1055.7 566.46C1056.65 565.523 1057.4 564.408 1057.91 563.179C1058.43 561.95 1058.7 560.632 1058.7 559.3Z" fill="#C5CCBF"/>
<path d="M1140.64 598.23C1140.64 596.51 1140.21 594.817 1139.38 593.31C1138.55 591.802 1137.36 590.527 1135.91 589.605C1134.46 588.683 1132.79 588.143 1131.08 588.036C1129.36 587.928 1127.65 588.256 1126.09 588.99C1130.67 583.185 1134.62 576.906 1137.86 570.26C1147.86 549.46 1146.63 530.26 1134.41 514.68C1112.17 486.37 1078.41 456.61 1078.09 456.31L1077.74 456L1077.41 456.33C1077.36 456.38 1073 460.6 1067.09 460.53C1063.16 460.46 1059.4 458.53 1055.91 454.81L1055.56 454.44L1035.81 474.19L1035.94 474.5C1036 474.64 1041.58 488.14 1032.7 498.75L1032.4 499.1L1032.72 499.42L1097.32 564.53C1097.47 564.66 1109.26 574.89 1117.87 596.35L1101.62 612.59C1099.97 600.595 1094.39 589.486 1085.75 581L1085.53 580.76L1085.33 580.58C1083.13 578.396 1080.79 576.355 1078.33 574.47L994.68 491.55C994.252 491.132 993.912 490.632 993.681 490.081C993.449 489.53 993.329 488.938 993.329 488.34C993.329 487.742 993.449 487.15 993.681 486.599C993.912 486.047 994.252 485.548 994.68 485.13L1063.39 418.49C1064.23 417.679 1065.34 417.225 1066.51 417.225C1067.67 417.225 1068.79 417.679 1069.63 418.49L1140.16 485.6C1148.24 493.276 1154.71 502.484 1159.2 512.686C1163.68 522.889 1166.09 533.882 1166.29 545.025C1166.49 556.168 1164.46 567.239 1160.34 577.593C1156.21 587.946 1150.07 597.375 1142.26 605.33L1102.77 640.33L1137.62 605.49C1138.58 604.542 1139.34 603.411 1139.86 602.164C1140.38 600.918 1140.64 599.58 1140.64 598.23Z" fill="#5BB462"/>
<path d="M1091.15 623.06C1091.63 621.307 1091.63 619.46 1091.17 617.704C1090.7 615.947 1089.78 614.346 1088.5 613.06L1084.57 609.12C1083.25 607.801 1081.59 606.864 1079.78 606.41C1077.96 605.956 1076.06 606.001 1074.27 606.54L1085.53 595.27C1086.84 593.969 1087.77 592.338 1088.22 590.55C1088.67 588.763 1088.63 586.886 1088.1 585.12C1095.03 593.131 1099.43 603.024 1100.72 613.54L1091.15 623.06Z" fill="#C5CCBF"/>
<path d="M989.68 674.63C991.446 676.396 992.438 678.792 992.438 681.29C992.438 683.788 991.446 686.183 989.68 687.95L985.12 692.51C983.804 693.828 982.126 694.727 980.299 695.091C978.472 695.455 976.578 695.269 974.857 694.555C973.136 693.842 971.666 692.634 970.632 691.084C969.598 689.535 969.047 687.713 969.05 685.85C969.049 684.984 969.17 684.122 969.41 683.29L980.47 672.23C981.303 671.994 982.164 671.873 983.03 671.87C984.266 671.867 985.49 672.109 986.632 672.583C987.773 673.056 988.809 673.752 989.68 674.63Z" fill="#C5CCBF"/>
<path d="M1055 552.81C1055.09 552.892 1055.17 552.979 1055.24 553.07L1054.71 552.54L1055 552.81Z" fill="#C3CEBE"/>
<path d="M1100.87 614.9L1101.79 613.98C1102.8 623.949 1101.54 634.017 1098.11 643.43L1096.36 645.18C1100.23 635.584 1101.78 625.208 1100.87 614.9Z" fill="#C3CEBE"/>
<path d="M1101.62 612.59L1100.72 613.5C1099.43 602.984 1095.03 593.091 1088.1 585.08C1087.64 583.566 1086.84 582.179 1085.75 581.03C1094.38 589.508 1099.96 600.606 1101.62 612.59Z" fill="#C3CEBE"/>
<path d="M1123.08 591.13C1128.57 584.614 1133.24 577.455 1137 569.81C1143.82 555.56 1148.78 534.54 1133.65 515.29C1112.65 488.59 1081.39 460.56 1077.8 457.36C1074.85 459.99 1071.06 461.47 1067.11 461.53C1063.04 461.46 1059.16 459.53 1055.57 455.87L1037 474.43C1037.8 476.56 1041.89 488.95 1033.77 499.04L1098 563.8C1098.12 563.9 1109.94 574.14 1118.63 595.58L1117.87 596.35C1109.26 574.89 1097.47 564.66 1097.32 564.53L1032.72 499.42L1032.4 499.1L1032.7 498.75C1041.58 488.14 1036 474.64 1035.94 474.5L1035.81 474.19L1055.56 454.44L1055.91 454.81C1059.4 458.54 1063.16 460.46 1067.09 460.53C1073 460.6 1077.36 456.38 1077.41 456.33L1077.74 456L1078.09 456.31C1078.43 456.61 1112.17 486.37 1134.41 514.68C1146.63 530.24 1147.83 549.46 1137.86 570.26C1134.62 576.91 1130.67 583.192 1126.09 589C1125.02 589.495 1124.05 590.172 1123.21 591L1123.08 591.13Z" fill="#5BB462"/>
<path d="M1119 597.21L1118.46 597.74L1118.35 597.46L1123.1 592.71C1120.64 595.55 1119 597.17 1119 597.21Z" fill="#5BB462"/>
<path d="M1081.41 523.43C1084.41 520.49 1088.14 517.1 1088.41 512.9C1088.49 511.596 1088.25 510.293 1087.72 509.1C1087.37 508.382 1086.89 507.737 1086.3 507.2L1074.81 518.92L1073.66 514.02L1082.85 504.64C1079.24 503.33 1076.15 505.35 1073.09 508.27L1068.63 512.86L1067.56 508.03L1086.91 488.3L1088.01 492.93L1082.77 498.32C1083.45 498.372 1084.12 498.492 1084.77 498.68C1085.71 498.97 1086.6 499.391 1087.42 499.93L1093.12 494.12L1094.23 499.12L1090.53 502.89C1094.53 508.13 1093.53 514.95 1088.41 521L1115.14 523.65L1109.96 528.93L1084.26 526.28L1081.41 523.43Z" fill="#5BB462"/>
<path d="M1048.55 550.13C1047.34 550.127 1046.15 550.362 1045.04 550.822C1043.92 551.282 1042.91 551.957 1042.06 552.81L986.13 608.75C984.495 610.37 983.53 612.545 983.424 614.843C983.319 617.142 984.081 619.396 985.561 621.158C987.04 622.921 989.128 624.063 991.41 624.358C993.692 624.652 996.001 624.079 997.88 622.75L995.74 624.89C993.961 625.471 992.057 625.547 990.238 625.109C988.42 624.671 986.758 623.737 985.44 622.41C983.538 620.508 982.47 617.929 982.47 615.24C982.47 612.551 983.538 609.972 985.44 608.07L1041.38 552.13C1042.74 550.78 1044.45 549.841 1046.31 549.42C1048.18 548.999 1050.13 549.113 1051.93 549.75L1054.75 552.54C1053.06 550.989 1050.85 550.129 1048.55 550.13Z" fill="#C5CCBF"/>
<path d="M1055 565.79C1056.68 564.114 1057.64 561.851 1057.69 559.478C1057.73 557.106 1056.86 554.808 1055.24 553.07L1058.05 555.85C1058.45 556.957 1058.66 558.124 1058.66 559.3C1058.66 560.636 1058.39 561.958 1057.88 563.19C1057.36 564.422 1056.61 565.54 1055.66 566.48L1041.16 580.98C1040.16 581.307 1039.22 581.786 1038.36 582.4L1055 565.79Z" fill="#C5CCBF"/>
<path d="M1058.09 555.85L1055.28 553.07C1055.2 552.979 1055.12 552.892 1055.04 552.81L1054.75 552.54L1051.93 549.75C1053.35 550.243 1054.64 551.046 1055.7 552.102C1056.77 553.157 1057.58 554.438 1058.09 555.85Z" fill="#C3CEBE"/>
<path d="M1055.17 596.71L1071.09 580.79C1072.04 579.837 1073.16 579.082 1074.4 578.567C1075.64 578.052 1076.97 577.788 1078.31 577.79C1079.33 577.794 1080.34 577.946 1081.31 578.24C1083.73 580.349 1085.99 582.631 1088.08 585.07C1088.61 586.836 1088.65 588.713 1088.2 590.5C1087.75 592.288 1086.82 593.919 1085.51 595.22L1074.25 606.49C1073.12 606.839 1072.05 607.376 1071.1 608.08L1084.73 594.45C1085.58 593.604 1086.25 592.6 1086.71 591.495C1087.16 590.39 1087.4 589.205 1087.4 588.009C1087.4 586.812 1087.17 585.627 1086.71 584.522C1086.25 583.416 1085.58 582.411 1084.74 581.565C1083.89 580.719 1082.89 580.047 1081.78 579.589C1080.68 579.131 1079.49 578.894 1078.29 578.894C1077.1 578.893 1075.91 579.129 1074.81 579.586C1073.7 580.044 1072.7 580.714 1071.85 581.56L995.09 658.32C993.473 659.939 992.524 662.108 992.433 664.395C992.342 666.682 993.115 668.919 994.598 670.662C996.081 672.405 998.167 673.526 1000.44 673.802C1002.71 674.077 1005 673.488 1006.86 672.15L1004.45 674.55C1002.55 675.118 1000.53 675.122 998.631 674.56C996.732 673.998 995.037 672.895 993.754 671.386C992.47 669.877 991.654 668.027 991.405 666.062C991.156 664.097 991.484 662.102 992.35 660.32L1053.18 599.49C1054 598.683 1054.67 597.743 1055.17 596.71Z" fill="#C5CCBF"/>
<path d="M1085.75 581L1085.33 580.58L1085.53 580.76L1085.75 581Z" fill="#C3CEBE"/>
<path d="M1085.75 581C1086.84 582.149 1087.64 583.536 1088.1 585.05C1086.01 582.611 1083.75 580.329 1081.33 578.22C1082.83 578.687 1084.2 579.494 1085.33 580.58L1085.75 581Z" fill="#C3CEBE"/>
<path d="M971.8 679.2L976.37 674.63C977.506 673.489 978.919 672.662 980.47 672.23L969.41 683.29C969.843 681.744 970.666 680.336 971.8 679.2Z" fill="#C5CCBF"/>
<path d="M1038.43 582.4L999.11 621.73C998.73 622.098 998.318 622.433 997.88 622.73L1037.17 583.44C1037.56 583.064 1037.99 582.716 1038.43 582.4Z" fill="#C5CCBF"/>
<path d="M999.11 621.73L1038.43 582.4C1039.29 581.786 1040.23 581.307 1041.23 580.98L999.79 622.41C998.673 623.543 997.302 624.393 995.79 624.89L997.93 622.75C998.352 622.444 998.747 622.103 999.11 621.73Z" fill="#C5CCBF"/>
<path d="M1055.17 596.71C1054.67 597.747 1053.99 598.691 1053.17 599.5L992.34 660.33C992.844 659.296 993.52 658.356 994.34 657.55L1055.17 596.71Z" fill="#C5CCBF"/>
<path d="M1006.88 672.16L1070 609.08C1070.37 608.72 1070.76 608.385 1071.17 608.08L1008 671.22C1007.65 671.558 1007.27 671.872 1006.88 672.16Z" fill="#C5CCBF"/>
<path d="M1045.9 670.25C1046.27 669.629 1046.72 669.054 1047.23 668.54L1089.93 625.84C1089.52 626.492 1089.04 627.096 1088.5 627.64L1045.9 670.25Z" fill="#C5CCBF"/>
<path d="M1008 671.22L1071.13 608.09C1072.08 607.386 1073.15 606.849 1074.28 606.5L1008.78 672C1007.58 673.199 1006.1 674.079 1004.48 674.56L1006.89 672.16C1007.28 671.871 1007.65 671.557 1008 671.22Z" fill="#C5CCBF"/>
<path d="M1100.87 614.9L1089.93 625.84C1090.47 624.98 1090.89 624.043 1091.15 623.06L1100.72 613.5C1100.77 614 1100.83 614.43 1100.87 614.9Z" fill="#C3CEBE"/>
<path d="M1046.29 667.94L1046.45 667.76L1087.7 626.51L1087.55 626.68L1046.29 667.94Z" fill="#C5CCBF"/>
<path d="M1044.56 675C1044.56 676.801 1045.1 678.562 1046.1 680.059C1047.1 681.557 1048.52 682.724 1050.18 683.413C1051.85 684.102 1053.68 684.283 1055.45 683.932C1057.21 683.58 1058.84 682.713 1060.11 681.44L1096.36 645.19C1096 646.07 1095.76 646.57 1095.74 646.61L1094.99 648.12L1060.89 682.22C1059.3 683.809 1057.23 684.828 1055 685.119C1052.77 685.41 1050.5 684.956 1048.56 683.829C1046.61 682.702 1045.09 680.963 1044.24 678.884C1043.38 676.805 1043.23 674.501 1043.82 672.33L1045.9 670.26C1045.02 671.685 1044.56 673.326 1044.56 675Z" fill="#C5CCBF"/>
<path d="M1118.15 597L1118.31 597.42L1101.79 614C1101.79 613.54 1101.68 613.08 1101.62 612.61L1117.87 596.37C1118 596.58 1118.05 596.81 1118.15 597Z" fill="#5BB462"/>
<path d="M1118.79 596C1118.79 595.87 1118.69 595.75 1118.63 595.62L1123.08 591.17C1121.12 593.49 1119.56 595.16 1118.79 596Z" fill="#5BB462"/>
<path d="M1100.87 614.9C1100.87 614.43 1100.77 613.97 1100.72 613.5L1101.62 612.59C1101.68 613.06 1101.74 613.52 1101.79 613.98L1100.87 614.9Z" fill="#C3CEBE"/>
<path d="M1096.36 645.18L1098.11 643.43C1097.9 644 1098.89 643.21 1098.72 643.65L1102.8 640.29L1094.99 648.11L1095.74 646.6C1095.74 646.6 1096 646.06 1096.36 645.18Z" fill="#C3CEBE"/>
<path d="M1117.87 596.35L1118.63 595.58C1118.69 595.71 1118.74 595.83 1118.79 595.96C1119.56 595.16 1121.12 593.49 1123.08 591.13L1123.21 591C1124.05 590.172 1125.02 589.495 1126.09 589C1125 590.4 1123.97 591.65 1123.09 592.72L1118.34 597.47L1118.18 597.05C1118.05 596.81 1118 596.58 1117.87 596.35Z" fill="#5BB462"/>
<path d="M1139.54 598.23C1139.54 596.428 1139.01 594.666 1138.01 593.167C1137.01 591.668 1135.59 590.499 1133.92 589.809C1132.26 589.118 1130.42 588.937 1128.66 589.288C1126.89 589.639 1125.26 590.506 1123.99 591.78L1123.06 592.71C1123.97 591.64 1125 590.39 1126.06 588.99C1128.24 587.969 1130.7 587.748 1133.02 588.365C1135.34 588.982 1137.37 590.398 1138.75 592.364C1140.13 594.33 1140.78 596.72 1140.57 599.114C1140.36 601.507 1139.32 603.751 1137.62 605.45L1102.77 640.29L1097.7 645.37C1097.88 644.92 1097.87 644 1098.08 643.43L1136.84 604.67C1137.69 603.829 1138.37 602.826 1138.84 601.721C1139.3 600.615 1139.54 599.429 1139.54 598.23Z" fill="#5BB462"/>
<path d="M1087.55 626.68L1087.7 626.51L1091.15 623.06C1090.89 624.043 1090.47 624.98 1089.93 625.84L1047.23 668.54C1046.72 669.054 1046.27 669.629 1045.9 670.25L1043.82 672.32C1044.26 670.676 1045.11 669.17 1046.29 667.94L1087.55 626.68Z" fill="#C5CCBF"/>
<path d="M971.46 678.85L976.02 674.28C976.72 673.579 977.523 672.989 978.4 672.53L969.69 681.23C970.155 680.351 970.752 679.548 971.46 678.85Z" fill="#C5CCBF"/>
<path d="M969.049 685.85C969.047 687.713 969.598 689.535 970.631 691.084C971.665 692.634 973.136 693.842 974.857 694.555C976.578 695.269 978.472 695.455 980.299 695.091C982.126 694.727 983.803 693.828 985.12 692.51L989.68 687.95C990.998 686.631 991.895 684.951 992.258 683.122C992.62 681.293 992.432 679.398 991.717 677.676C991.002 675.954 989.791 674.483 988.24 673.45C986.688 672.416 984.864 671.866 983 671.87C982.134 671.873 981.272 671.994 980.44 672.23L981.099 671.57C983.184 671.159 985.345 671.429 987.265 672.341C989.184 673.252 990.758 674.757 991.756 676.633C992.754 678.509 993.122 680.656 992.806 682.757C992.489 684.858 991.506 686.801 990 688.3L985.44 692.86C984.052 694.241 982.287 695.182 980.367 695.562C978.446 695.942 976.456 695.746 974.647 694.998C972.838 694.249 971.291 692.982 970.201 691.356C969.11 689.73 968.525 687.818 968.52 685.86C968.524 685.226 968.584 684.593 968.7 683.97L969.38 683.3C969.151 684.13 969.04 684.989 969.049 685.85Z" fill="#C5CCBF"/>
<path d="M978.401 672.53C979.256 672.062 980.176 671.725 981.13 671.53L980.47 672.19C978.919 672.622 977.507 673.449 976.37 674.59L971.8 679.16C970.666 680.296 969.843 681.704 969.41 683.25L968.73 683.92C968.932 682.967 969.268 682.048 969.73 681.19L978.401 672.53Z" fill="#C5CCBF"/>
<path d="M334.98 388.09H163.38L163.38 83.24C163.38 72.31 165.533 61.4872 169.716 51.3892C173.899 41.2913 180.029 32.1161 187.758 24.3875C195.487 16.6589 204.662 10.5282 214.76 6.34546C224.858 2.16275 235.681 0.00997925 246.61 0.00997925H334.98L334.98 388.09Z" fill="#00455E"/>
<path d="M575.46 91.82C655.91 155.91 707.46 254.72 707.46 365.57C707.46 476.89 655.46 576.06 574.46 640.13" stroke="#00455E" stroke-width="15" stroke-miterlimit="10" stroke-linecap="round"/>
<path d="M136.19 636.41C96.0225 603.631 63.6596 562.317 41.4517 515.469C19.2438 468.621 7.74824 417.415 7.79998 365.57C7.79998 256.06 58.12 158.3 136.91 94.15" stroke="#00455E" stroke-width="15" stroke-miterlimit="10" stroke-linecap="round"/>
<path d="M377.87 340.83H466.21C488.284 340.83 509.454 349.599 525.063 365.207C540.671 380.816 549.44 401.986 549.44 424.06V644.8C549.44 667.11 540.577 688.506 524.802 704.282C509.026 720.057 487.63 728.92 465.32 728.92H377.87V340.83Z" fill="#00455E"/>
<path d="M286 366.64C249.23 412.64 215.53 366.64 215.53 366.64L121.83 208.79C102.42 183.29 71.83 180.66 55.49 182.28C13.8 186.41 0 241 0 241V363.23C36.77 317.23 70.47 363.23 70.47 363.23L164.17 521.08C183.57 546.59 214.17 549.21 230.51 547.59C272.16 543.46 285.96 488.85 285.96 488.85L286 366.64Z" fill="#FFAE00"/>
<path d="M163.4 484.52H251.74C262.673 484.516 273.499 486.666 283.6 490.847C293.702 495.028 302.88 501.158 310.612 508.887C318.344 516.616 324.477 525.792 328.662 535.892C332.847 545.992 335 556.818 335 567.75V731.67H237C217.499 731.67 198.796 723.923 185.007 710.134C171.217 696.344 163.47 677.641 163.47 658.14V484.52H163.4Z" fill="#00455E"/>
<path d="M571.91 368.34C535.15 414.34 501.45 368.34 501.45 368.34L407.75 210.5C388.34 184.99 357.75 182.36 341.41 183.98C299.76 188.12 286 242.72 286 242.72V364.94C322.76 318.94 356.47 364.94 356.47 364.94L450.17 522.78C469.57 548.29 500.17 550.91 516.5 549.29C558.16 545.16 571.95 490.55 571.95 490.55L571.91 368.34Z" fill="#FFAE00"/>
<path d="M571.91 363.23V247.15C571.91 247.15 578 181 642.72 183.6C707.44 186.2 708.72 247.15 708.72 247.15C708.72 247.15 714.16 262.81 694.42 287.32C674.68 311.83 571.91 363.23 571.91 363.23Z" fill="#FFAE00"/>
<path d="M377.87 0H466.21C488.284 0 509.454 8.76885 525.063 24.3775C540.671 39.9862 549.44 61.156 549.44 83.23V247.15H451.44C431.939 247.15 413.236 239.403 399.447 225.614C385.657 211.824 377.91 193.121 377.91 173.62V0H377.87Z" fill="#00455E"/>
</g>
<defs>
<clipPath id="clip0_266_2">
<rect width="2891.44" height="731.67" fill="white"/>
</clipPath>
</defs>
</svg>
