<svg width="19" height="19" viewBox="0 0 19 19" fill="none" xmlns="http://www.w3.org/2000/svg">
<g clip-path="url(#clip0_359_4)">
<path d="M16.2959 18.1238H12.4159C11.4079 18.1238 10.5879 17.3038 10.5879 16.2959V10.8639C10.5879 9.85596 11.4079 9.03593 12.4159 9.03593H16.2959C17.3038 9.03593 18.1238 9.85596 18.1238 10.8639V16.2959C18.1238 17.3038 17.3038 18.1238 16.2959 18.1238ZM12.4159 9.58791C11.7123 9.58791 11.1399 10.1603 11.1399 10.8639V16.2959C11.1399 16.9994 11.7123 17.5718 12.4159 17.5718H16.2959C16.9994 17.5718 17.5718 16.9994 17.5718 16.2959V10.8639C17.5718 10.1603 16.9994 9.58791 16.2959 9.58791H12.4159ZM0.77599 18.1238C0.62381 18.1238 0.5 18 0.5 17.8479C0.5 14.2726 3.40868 11.3639 6.98394 11.3639H7.75993C7.91212 11.3639 8.03593 11.4877 8.03593 11.6399C8.03593 11.7921 7.91212 11.9159 7.75993 11.9159H6.98394C3.71305 11.9159 1.05199 14.577 1.05199 17.8479C1.05199 18 0.92818 18.1238 0.77599 18.1238ZM15.5199 15.0199H13.1919C13.0397 15.0199 12.9159 14.8961 12.9159 14.7439C12.9159 14.5917 13.0397 14.4679 13.1919 14.4679H15.5199C15.6721 14.4679 15.7959 14.5917 15.7959 14.7439C15.7959 14.8961 15.6721 15.0199 15.5199 15.0199ZM15.5199 12.6896H13.1919C13.0397 12.6896 12.9159 12.5658 12.9159 12.4136C12.9159 12.2614 13.0397 12.1376 13.1919 12.1376H15.5199C15.6721 12.1376 15.7959 12.2614 15.7959 12.4136C15.7959 12.5658 15.6721 12.6896 15.5199 12.6896ZM6.98394 8.81192C4.69234 8.81192 2.82798 6.94756 2.82798 4.65596C2.82798 2.36436 4.69234 0.5 6.98394 0.5C9.27554 0.5 11.1399 2.36436 11.1399 4.65596C11.1399 6.94756 9.27554 8.81192 6.98394 8.81192ZM6.98394 1.05199C4.9967 1.05199 3.37997 2.66872 3.37997 4.65596C3.37997 6.6432 4.9967 8.25993 6.98394 8.25993C8.97118 8.25993 10.5879 6.6432 10.5879 4.65596C10.5879 2.66872 8.97118 1.05199 6.98394 1.05199Z" fill="white"/>
<path d="M6.98394 0C9.5517 0 11.6399 2.0882 11.6399 4.65596C11.6399 7.22372 9.5517 9.31192 6.98394 9.31192C4.41618 9.31192 2.32798 7.22372 2.32798 4.65596C2.32798 2.0882 4.41618 0 6.98394 0ZM6.98394 7.75993C8.69578 7.75993 10.0879 6.3678 10.0879 4.65596C10.0879 2.94412 8.69578 1.55199 6.98394 1.55199C5.2721 1.55199 3.87997 2.94412 3.87997 4.65596C3.87997 6.3678 5.2721 7.75993 6.98394 7.75993ZM12.4159 8.53593H16.2959C17.5793 8.53593 18.6238 9.58041 18.6238 10.8639V16.2959C18.6238 17.5793 17.5793 18.6238 16.2959 18.6238H12.4159C11.1324 18.6238 10.0879 17.5793 10.0879 16.2959V10.8639C10.0879 9.58041 11.1324 8.53593 12.4159 8.53593ZM16.2959 17.0718C16.7242 17.0718 17.0718 16.7234 17.0718 16.2959V10.8639C17.0718 10.4363 16.7242 10.0879 16.2959 10.0879H12.4159C11.9876 10.0879 11.6399 10.4363 11.6399 10.8639V16.2959C11.6399 16.7234 11.9876 17.0718 12.4159 17.0718H16.2959ZM6.98394 10.8639H7.75993C8.18906 10.8639 8.53593 11.2115 8.53593 11.6399C8.53593 12.0683 8.18906 12.4159 7.75993 12.4159H6.98394C3.98938 12.4159 1.55199 14.8525 1.55199 17.8479C1.55199 18.2762 1.20512 18.6238 0.77599 18.6238C0.34687 18.6238 0 18.2762 0 17.8479C0 13.9974 3.13268 10.8639 6.98394 10.8639ZM13.1919 11.6376H15.5199C15.949 11.6376 16.2959 11.9852 16.2959 12.4136C16.2959 12.8419 15.949 13.1896 15.5199 13.1896H13.1919C12.7628 13.1896 12.4159 12.8419 12.4159 12.4136C12.4159 11.9852 12.7628 11.6376 13.1919 11.6376ZM13.1919 13.9679H15.5199C15.949 13.9679 16.2959 14.3155 16.2959 14.7439C16.2959 15.1722 15.949 15.5199 15.5199 15.5199H13.1919C12.7628 15.5199 12.4159 15.1722 12.4159 14.7439C12.4159 14.3155 12.7628 13.9679 13.1919 13.9679Z" fill="white"/>
</g>
<defs>
<clipPath id="clip0_359_4">
<rect width="18.624" height="18.624" fill="white"/>
</clipPath>
</defs>
</svg>
