<svg width="17" height="16" viewBox="0 0 17 16" fill="none" xmlns="http://www.w3.org/2000/svg">
<g clip-path="url(#clip0_359_8)">
<path d="M16.6242 11.344C16.7004 10.6572 16.5788 9.96291 16.2737 9.34285C15.9687 8.72279 15.4928 8.20279 14.9022 7.84405C14.8202 2.42205 12.7792 -0.00195312 8.31219 -0.00195312C3.84519 -0.00195312 1.80019 2.42905 1.72119 7.86505C1.13749 8.22577 0.666739 8.74307 0.362494 9.3581C0.0582493 9.97313 -0.0672794 10.6612 0.00018757 11.344C0.00018757 15.044 2.74919 15.466 4.81719 15.466C4.97599 15.4661 5.13076 15.416 5.25949 15.323C5.38821 15.23 5.48434 15.0988 5.53419 14.948C6.30492 12.6072 6.30492 10.0809 5.53419 7.74005C5.4842 7.58935 5.38805 7.45822 5.25935 7.36524C5.13066 7.27226 4.97596 7.22216 4.81719 7.22205C4.2919 7.2126 3.76681 7.25008 3.24819 7.33405C3.44819 2.52805 5.42619 1.51105 8.31219 1.51105C11.1982 1.51105 13.1742 2.52905 13.3762 7.33705C12.8573 7.2552 12.3325 7.21673 11.8072 7.22205C11.6484 7.22201 11.4936 7.27205 11.3649 7.36505C11.2362 7.45805 11.14 7.58927 11.0902 7.74005C10.4265 9.75807 10.3327 11.9201 10.8192 13.988C10.0192 14.002 9.24519 13.978 8.51919 13.919C8.32426 13.9118 8.13406 13.9801 7.98836 14.1098C7.84265 14.2395 7.75272 14.4205 7.73735 14.615C7.72199 14.8094 7.78238 15.0023 7.90591 15.1533C8.02943 15.3042 8.20653 15.4016 8.40019 15.425C9.03419 15.476 9.70019 15.502 10.3872 15.502C10.8579 15.502 11.3392 15.49 11.8312 15.466C13.0422 15.466 16.6312 15.443 16.6312 11.344H16.6242ZM4.26019 13.942C2.24319 13.842 1.51219 13.118 1.51219 11.342C1.51219 9.56605 2.24319 8.84805 4.26019 8.74205C4.71751 10.4452 4.71751 12.2389 4.26019 13.942ZM12.3602 13.942C11.9029 12.2389 11.9029 10.4452 12.3602 8.74205C14.3772 8.84205 15.1082 9.56605 15.1082 11.342C15.1082 13.118 14.3772 13.836 12.3602 13.942Z" fill="white"/>
</g>
<defs>
<clipPath id="clip0_359_8">
<rect width="16.624" height="15.502" fill="white"/>
</clipPath>
</defs>
</svg>
